# xmcd CD database file
#
# Track frame offsets:
#	150
#	20647
#	32158
#	42580
#	55637
#	68367
#	91730
#	110983
#	127016
#	138547
#	163315
#	190313
#
# Disc length: 2721 seconds
#
# Revision: 0
# Processed by: cddbd v1.5.1PL2 Copyright (c) Steve Scherf et al.
# Submitted via: CDex 1.51
#
DISCID=ad0a9f0c
DTITLE=イルリメ - イるreメ短編講座再発
DYEAR=2004
DGENRE=J-Pop
TTITLE0=galaxy express
TTITLE1=UFO日和
TTITLE2=トウロウ流し
TTITLE3=sandbag backpacker
TTITLE4=ネズミ色から
TTITLE5=galaxy express by 二階堂和美
TTITLE6=UFO日和 by スッパマイクロパンチョップ
TTITLE7=sandbag backpacker by タカツキ
TTITLE8=ネズミ色から by ヤベミルク
TTITLE9=やけのはらEDIT
TTITLE10=galaxy express (DJ Matsuoka remix)
TTITLE11=galaxy express (DJ原理的相対主義者 remix)
EXTD=YEAR: 2004
EXTT0=
EXTT1=
EXTT2=
EXTT3=
EXTT4=
EXTT5=
EXTT6=
EXTT7=
EXTT8=
EXTT9=
EXTT10=
EXTT11=
PLAYORDER=
